HIERARCHY
ROOT Hips
{
	OFFSET	0.00	0.00	0.00
	CHANNELS 6 Xposition Yposition Zposition Zrotation Xrotation Yrotation
	JOINT LeftUpLeg
	{
		OFFSET	 0.126116	-0.014019	-0.065224
		CHANNELS 3 Zrotation Xrotation Yrotation
		JOINT LeftLeg
		{
			OFFSET	 0.000000	 0.000000	 0.569914
			CHANNELS 3 Zrotation Xrotation Yrotation
			JOINT LeftFoot
			{
				OFFSET	 0.000000	 0.000000	 0.544423
				CHANNELS 3 Zrotation Xrotation Yrotation
				JOINT LeftToeBase
				{
					OFFSET	 0.000000	 0.000000	 0.207117
					CHANNELS 3 Zrotation Xrotation Yrotation
					End Site
					{
						OFFSET	 0.000000	 0.000000	 0.207117
					}
				}
			}
		}
	}
	JOINT RightUpLeg
	{
		OFFSET	-0.124023	-0.008373	-0.065224
		CHANNELS 3 Zrotation Xrotation Yrotation
		JOINT RightLeg
		{
			OFFSET	 0.000000	 0.000000	 0.570047
			CHANNELS 3 Zrotation Xrotation Yrotation
			JOINT RightFoot
			{
				OFFSET	 0.000000	 0.000000	 0.544354
				CHANNELS 3 Zrotation Xrotation Yrotation
				JOINT RightToeBase
				{
					OFFSET	 0.000000	 0.000000	 0.207540
					CHANNELS 3 Zrotation Xrotation Yrotation
					End Site
					{
						OFFSET	 0.000000	 0.000000	 0.207540
					}
				}
			}
		}
	}
	JOINT Spine
	{
		OFFSET	 0.000184	-0.007763	 0.117403
		CHANNELS 3 Zrotation Xrotation Yrotation
		JOINT Spine1
		{
			OFFSET	 0.000000	 0.000000	 0.137269
			CHANNELS 3 Zrotation Xrotation Yrotation
			JOINT Spine2
			{
				OFFSET	 0.000000	 0.000000	 0.156879
				CHANNELS 3 Zrotation Xrotation Yrotation
				JOINT LeftShoulder
				{
					OFFSET	 0.080501	-0.002496	 0.160144
					CHANNELS 3 Zrotation Xrotation Yrotation
					JOINT LeftArm
					{
						OFFSET	 0.000000	 0.000000	 0.164363
						CHANNELS 3 Zrotation Xrotation Yrotation
						JOINT LeftForeArm
						{
							OFFSET	 0.000000	 0.000000	 0.364576
							CHANNELS 3 Zrotation Xrotation Yrotation
							JOINT LeftHand
							{
								OFFSET	 0.000000	 0.000000	 0.360812
								CHANNELS 3 Zrotation Xrotation Yrotation
								JOINT LeftHandIndex1
								{
									OFFSET	 0.000000	 0.000000	 0.086006
									CHANNELS 3 Zrotation Xrotation Yrotation
									JOINT LeftHandIndex2
									{
										OFFSET	 0.000000	 0.000000	 0.047236
										CHANNELS 3 Zrotation Xrotation Yrotation
										JOINT LeftHandIndex3
										{
											OFFSET	-0.004284	-0.000551	 0.038166
											CHANNELS 3 Zrotation Xrotation Yrotation
											End Site
											{
												OFFSET	-0.004284	-0.000551	 0.038166
											}
										}
									}
								}
							}
						}
					}
				}
				JOINT Neck
				{
					OFFSET	 0.000000	 0.000000	 0.176489
					CHANNELS 3 Zrotation Xrotation Yrotation
					JOINT Head
					{
						OFFSET	 0.000000	-0.001747	 0.077940
						CHANNELS 3 Zrotation Xrotation Yrotation
						End Site
						{
							OFFSET	 0.000000	-0.001747	 0.077940
						}
					}
				}
				JOINT RightShoulder
				{
					OFFSET	-0.080363	 0.000306	 0.159706
					CHANNELS 3 Zrotation Xrotation Yrotation
					JOINT RightArm
					{
						OFFSET	 0.000000	 0.000000	 0.164196
						CHANNELS 3 Zrotation Xrotation Yrotation
						JOINT RightForeArm
						{
							OFFSET	 0.000000	 0.000000	 0.365611
							CHANNELS 3 Zrotation Xrotation Yrotation
							JOINT RightHand
							{
								OFFSET	 0.000000	 0.000000	 0.360648
								CHANNELS 3 Zrotation Xrotation Yrotation
								JOINT RightHandIndex1
								{
									OFFSET	 0.000000	 0.000000	 0.069977
									CHANNELS 3 Zrotation Xrotation Yrotation
									JOINT RightHandIndex2
									{
										OFFSET	 0.000000	 0.000000	 0.052305
										CHANNELS 3 Zrotation Xrotation Yrotation
										JOINT RightHandIndex3
										{
											OFFSET	 0.009002	-0.000782	 0.042196
											CHANNELS 3 Zrotation Xrotation Yrotation
											End Site
											{
												OFFSET	 0.009002	-0.000782	 0.042196
											}
										}
									}
								}
							}
						}
					}
				}
			}
		}
	}
}
MOTION
Frames:    11
Frame Time: 0.03333334
 0.000365	 0.075896	 1.273624	 0.155402	 0.416765	 0.139886	 4.120881	-1.741005	 179.845800	 3.148374	-11.594570	 1.749879	 4.354856	 71.406410	 1.230548	-2.385833	 28.452760	 0.000004	-4.121233	-2.153045	-179.879800	-3.140193	-11.964010	-1.790653	-4.386740	 71.428390	-1.219508	 2.384659	 28.388700	-0.000001	-0.004747	 2.704455	 0.089747	-0.000863	-1.797844	-0.000071	-0.001036	-2.157411	-0.000088	-96.855680	 86.735770	-170.910800	 12.090980	 1.915943	-6.709803	-4.245844	-0.921634	-0.250979	-16.223960	-0.324199	-4.324851	-2.482367	 5.116409	 7.306710	-5.213516	-0.193813	 3.566525	-1.378229	 35.397820	-2.634230	-0.000002	-3.783157	-0.089647	-0.001369	 1.263124	 0.000015	 104.097500	 88.275240	 160.879200	-12.297030	 2.928372	 8.184141	 4.452745	-0.477564	 0.392396	 15.895390	-1.490653	 8.621506	 3.315085	 2.709412	-9.595269	 5.070815	-0.697434	-9.399699	-2.350882	 35.473990	 5.254307
-0.004309	 0.087415	 1.274747	-2.176767	 9.080029	 2.971607	 5.449055	-20.206860	 175.384000	-4.311880	-36.498030	-1.138774	-1.290756	 83.694100	-0.564924	-2.328521	 37.032520	-0.198764	-1.739243	-21.542210	-178.983700	-1.860301	-39.228940	-0.734489	-1.451363	 86.436740	 0.914897	 2.395315	 25.566980	-0.059952	 0.327635	 5.323581	-1.541973	 0.765001	 4.205142	-2.055807	 0.712543	 1.860355	 0.035586	-101.054000	 88.610970	-168.191200	 53.550850	 68.421550	-63.209870	-4.740193	-4.260814	-16.857850	 8.247851	-2.288182	-5.295946	-3.158969	-11.688300	 4.444175	-5.213516	-0.193813	 3.566525	-1.378229	 35.397820	-2.634230	 0.770347	 1.516957	 0.727987	 0.627513	 3.447641	 0.373499	 96.808700	 87.943580	 170.031100	-51.997380	 75.645400	 65.144030	-2.461726	-12.697230	 23.055180	-25.973340	-3.199001	 9.562958	-7.338772	-4.245286	-36.853420	 5.070815	-0.697434	-9.399699	-2.350882	 35.473990	 5.254307
-0.007188	 0.082697	 1.274421	-1.754794	 8.906153	 2.798502	 5.271533	-19.859840	 175.355400	-4.176181	-36.445660	-1.157478	-1.363616	 83.806120	-0.527385	-2.324960	 37.413520	-0.208345	-1.825782	-20.007680	-179.010300	-1.320123	-37.344430	-0.473551	-1.372943	 86.526110	 1.199121	 2.391824	 26.601480	-0.038217	 0.136961	 5.139004	-1.523044	 0.629492	 4.527086	-2.037008	 0.740024	 2.246884	 0.034467	-100.319100	 88.607730	-169.118100	 52.927200	 68.779980	-62.416160	-4.665142	-4.225050	-16.101630	 8.617406	-2.308050	-5.285462	-3.401395	-11.903170	 3.878056	-5.213516	-0.193813	 3.566525	-1.378229	 35.397820	-2.634230	 0.736437	 1.713856	 0.863980	 0.743687	 3.994822	 0.234332	 97.185960	 88.024540	 169.643600	-52.634720	 75.702260	 65.331380	-2.698908	-12.643130	 22.917370	-25.998040	-3.199550	 9.562054	-7.233969	-4.177498	-36.635440	 5.070815	-0.697434	-9.399699	-2.350882	 35.473990	 5.254307
-0.010615	 0.078930	 1.274476	-1.421785	 8.853027	 2.840018	 5.037597	-19.517080	 175.144200	-4.045260	-36.217640	-1.210746	-1.433967	 83.688790	-0.546472	-2.322303	 37.690140	-0.215363	-2.099922	-19.012070	-179.358200	-1.016078	-35.682320	-0.493086	-1.461033	 86.470640	 1.291378	 2.392126	 26.517810	-0.039983	 0.025836	 4.956082	-1.782022	 0.573912	 4.778101	-2.045427	 0.765245	 2.597658	 0.033302	-99.311900	 88.515880	-170.242400	 52.597600	 69.291410	-62.267730	-4.800444	-4.240602	-15.536810	 9.066224	-2.323966	-5.275663	-3.252981	-11.970720	 4.219826	-5.213516	-0.193813	 3.566525	-1.378229	 35.397820	-2.634230	 0.744695	 1.886926	 1.032301	 0.807574	 4.500030	 0.214622	 97.876100	 88.172550	 168.966100	-53.109980	 75.797000	 65.350070	-2.866490	-12.582330	 22.793300	-25.995840	-3.199973	 9.561940	-7.129141	-4.035547	-36.472290	 5.070815	-0.697434	-9.399699	-2.350882	 35.473990	 5.254307
-0.013390	 0.076350	 1.274776	-1.640868	 8.865109	 3.230608	 4.914503	-19.252100	 174.696900	-4.124928	-35.867860	-1.335110	-1.485508	 83.450900	-0.695409	-2.322552	 37.665020	-0.214717	-2.359860	-18.496460	-179.788700	-1.345312	-34.889780	-0.860845	-1.926701	 86.219860	 1.231053	 2.396917	 25.041390	-0.070900	 0.136696	 4.815145	-2.284363	 0.728494	 4.885072	-2.149936	 0.823185	 2.781685	 0.034503	-98.716630	 88.385050	-170.802600	 52.292190	 69.946650	-62.183720	-5.268891	-4.290995	-15.392540	 9.351483	-2.328440	-5.270519	-3.381974	-12.185760	 3.918278	-5.213516	-0.193813	 3.566525	-1.378229	 35.397820	-2.634230	 0.866960	 2.116912	 1.140766	 0.792908	 4.628151	 0.315748	 98.431850	 88.313100	 168.491800	-53.315670	 75.853140	 65.258530	-2.986053	-12.530120	 22.681910	-25.998850	-3.200787	 9.560941	-7.055634	-3.872890	-36.404810	 5.070815	-0.697434	-9.399699	-2.350882	 35.473990	 5.254307
-0.015674	 0.074315	 1.275183	-2.318450	 8.903083	 3.201386	 4.944245	-18.905590	 174.828900	-4.427590	-35.367000	-1.460937	-1.529373	 83.167430	-0.876603	-2.323420	 37.574550	-0.212427	-2.462019	-18.438420	-179.748300	-1.776947	-34.508140	-1.159656	-2.397479	 86.055530	 1.259634	 2.397671	 24.778280	-0.076358	 0.404251	 4.594027	-2.176504	 0.974109	 4.936391	-2.084876	 0.905753	 2.899085	 0.037035	-98.938930	 88.384930	-170.508400	 52.336280	 70.388710	-62.102830	-6.078626	-4.261324	-15.854400	 8.912661	-2.313371	-5.280609	-3.830647	-12.809010	 2.885875	-5.213516	-0.193813	 3.566525	-1.378229	 35.397820	-2.634230	 1.024688	 2.264437	 1.091141	 0.770098	 4.712235	 0.163476	 97.988750	 88.312980	 169.079700	-53.160690	 75.836090	 64.979780	-3.168216	-12.507160	 22.538890	-26.094470	-3.202148	 9.558274	-6.996057	-3.720256	-36.365610	 5.070815	-0.697434	-9.399699	-2.350882	 35.473990	 5.254307
-0.017480	 0.073122	 1.275744	-2.830194	 8.894706	 2.806253	 5.068980	-18.384180	 175.175800	-4.681145	-34.816740	-1.489663	-1.575248	 82.959480	-0.930365	-2.324927	 37.416790	-0.208425	-2.466258	-18.584420	-179.444600	-1.912055	-34.457920	-1.218065	-2.590579	 86.051220	 1.369330	 2.397139	 24.966630	-0.072461	 0.556557	 4.606418	-1.683224	 1.079823	 4.962943	-1.892576	 0.958453	 2.964311	 0.038646	-99.346370	 88.431650	-170.051800	 53.374820	 70.128570	-62.872760	-6.509383	-4.170172	-16.715950	 8.035693	-2.292549	-5.296770	-3.866167	-13.058830	 2.805447	-5.213516	-0.193813	 3.566525	-1.378229	 35.397820	-2.634230	 1.096771	 2.222004	 0.982029	 0.785113	 4.884552	-0.051239	 97.578000	 88.255840	 169.522900	-52.893590	 75.763790	 64.757320	-3.356880	-12.498000	 22.386860	-26.229020	-3.203273	 9.555892	-6.968391	-3.636705	-36.356950	 5.070815	-0.697434	-9.399699	-2.350882	 35.473990	 5.254307
-0.019223	 0.072295	 1.276500	-3.014100	 8.876677	 2.535393	 5.127590	-18.014540	 175.377500	-4.757115	-34.262590	-1.455665	-1.647759	 82.858040	-0.870916	-2.326374	 37.263500	-0.204560	-2.477954	-18.600630	-179.303500	-1.889140	-34.578000	-1.201353	-2.683325	 86.053700	 1.491471	 2.396436	 25.203160	-0.067542	 0.532415	 4.730844	-1.443913	 1.050948	 4.978827	-1.751397	 0.987594	 2.999536	 0.039516	-99.355610	 88.434020	-170.044000	 55.021870	 69.358890	-64.395680	-6.088271	-4.129059	-17.325410	 7.539665	-2.277614	-5.305886	-3.628434	-12.577900	 3.348185	-5.213516	-0.193813	 3.566525	-1.378229	 35.397820	-2.634230	 1.108922	 2.173751	 0.966354	 0.833027	 5.002064	-0.113222	 97.705060	 88.246540	 169.335600	-52.444690	 75.655210	 64.443920	-3.547728	-12.482660	 22.208900	-26.378830	-3.204249	 9.553888	-6.977882	-3.643275	-36.376660	 5.070815	-0.697434	-9.399699	-2.350882	 35.473990	 5.254307
-0.020563	 0.071416	 1.277286	-2.972553	 8.906322	 2.411489	 5.128653	-17.807200	 175.441700	-4.729235	-33.880190	-1.411297	-1.710306	 82.803550	-0.785264	-2.327036	 37.192560	-0.202780	-2.507941	-18.537550	-179.298600	-1.774891	-34.742330	-1.150905	-2.732064	 86.057330	 1.618967	 2.395674	 25.451120	-0.062376	 0.408142	 4.760711	-1.480230	 0.958306	 5.015804	-1.662782	 1.001072	 3.043274	 0.039674	-98.603990	 88.335400	-170.872000	 56.672790	 68.440410	-66.202170	-4.974448	-4.254696	-17.671830	 7.744127	-2.271401	-5.306033	-3.475769	-11.854310	 3.706682	-5.213516	-0.193813	 3.566525	-1.378229	 35.397820	-2.634230	 1.096745	 2.219648	 0.995650	 0.883264	 5.039582	 0.055238	 98.452450	 88.338340	 168.514700	-51.628470	 75.547080	 63.757500	-3.677506	-12.472770	 22.077460	-26.493790	-3.204972	 9.552689	-7.015372	-3.706972	-36.425840	 5.070815	-0.697434	-9.399699	-2.350882	 35.473990	 5.254307
-0.021595	 0.070477	 1.277911	-2.805948	 8.934009	 2.330136	 5.105405	-17.700370	 175.457000	-4.647048	-33.650870	-1.361906	-1.756114	 82.769880	-0.689064	-2.327650	 37.126890	-0.201121	-2.528645	-18.463560	-179.298100	-1.626986	-34.795970	-1.076899	-2.751317	 86.054740	 1.748475	 2.394887	 25.702800	-0.057113	 0.242921	 4.667516	-1.549244	 0.826760	 5.066538	-1.625183	 0.990293	 3.101673	 0.038742	-98.049740	 88.279780	-171.528600	 57.715470	 67.843580	-67.576220	-4.222519	-4.385261	-17.896270	 8.026119	-2.267750	-5.305177	-3.255197	-11.237220	 4.230740	-5.213516	-0.193813	 3.566525	-1.378229	 35.397820	-2.634230	 1.053036	 2.288700	 1.008238	 0.920865	 5.082283	 0.226171	 99.381600	 88.449340	 167.526300	-50.468350	 75.465550	 62.669320	-3.693912	-12.462550	 22.024140	-26.527770	-3.205570	 9.551738	-7.045046	-3.716697	-36.495570	 5.070815	-0.697434	-9.399699	-2.350882	 35.473990	 5.254307
-0.022533	 0.069706	 1.278510	-2.510890	 8.935131	 2.228363	 5.117053	-17.631340	 175.466000	-4.441824	-33.504390	-1.232699	-1.682960	 82.752680	-0.580547	-2.328218	 37.065220	-0.199580	-2.576375	-18.367770	-179.283600	-1.480413	-34.766270	-1.017190	-2.793566	 86.040120	 1.878877	 2.394679	 25.769550	-0.055720	 0.028635	 4.609015	-1.560113	 0.634936	 5.122700	-1.627128	 0.942200	 3.166607	 0.036327	-97.705370	 88.276030	-171.987600	 58.404480	 67.462220	-68.676420	-4.073178	-4.419984	-18.190900	 7.966421	-2.260078	-5.308401	-3.320053	-11.019860	 4.083333	-5.213516	-0.193813	 3.566525	-1.378229	 35.397820	-2.634230	 0.941261	 2.285835	 1.020634	 0.960911	 5.209406	 0.236305	 100.005100	 88.500800	 166.834400	-49.083110	 75.370350	 61.389260	-3.642340	-12.467680	 22.035060	-26.527210	-3.206283	 9.550326	-7.073796	-3.684605	-36.594660	 5.070815	-0.697434	-9.399699	-2.350882	 35.473990	 5.254307
